<svg width="15" height="18" viewBox="0 0 15 18" fill="none" xmlns="http://www.w3.org/2000/svg">
<path d="M12.2454 0H1.93349C1.4207 0 0.928907 0.203188 0.566307 0.564866C0.203707 0.926543 0 1.41708 0 1.92857V16.0714C0 16.5829 0.203707 17.0735 0.566307 17.4351C0.928907 17.7968 1.4207 18 1.93349 18H12.2454C12.7582 18 13.25 17.7968 13.6126 17.4351C13.9752 17.0735 14.1789 16.5829 14.1789 16.0714V1.92857C14.1789 1.41708 13.9752 0.926543 13.6126 0.564866C13.25 0.203188 12.7582 0 12.2454 0ZM1.93349 1.28571H12.2454C12.4164 1.28571 12.5803 1.35344 12.7012 1.474C12.822 1.59456 12.8899 1.75808 12.8899 1.92857V6.42857H1.28899V1.92857C1.28899 1.75808 1.3569 1.59456 1.47776 1.474C1.59863 1.35344 1.76256 1.28571 1.93349 1.28571ZM12.8899 16.0714C12.8899 16.2419 12.822 16.4054 12.7012 16.526C12.5803 16.6466 12.4164 16.7143 12.2454 16.7143H1.93349C1.76256 16.7143 1.59863 16.6466 1.47776 16.526C1.3569 16.4054 1.28899 16.2419 1.28899 16.0714V7.71429H12.8899V16.0714Z" fill="#79747E"/>
<path d="M10.9565 15.4286C11.1274 15.4286 11.2913 15.3608 11.4122 15.2403C11.5331 15.1197 11.601 14.9562 11.601 14.7857V9.64286C11.601 9.47236 11.5331 9.30885 11.4122 9.18829C11.2913 9.06773 11.1274 9 10.9565 9C10.7855 9 10.6216 9.06773 10.5007 9.18829C10.3799 9.30885 10.312 9.47236 10.312 9.64286V14.7857C10.312 14.9562 10.3799 15.1197 10.5007 15.2403C10.6216 15.3608 10.7855 15.4286 10.9565 15.4286Z" fill="#79747E"/>
<path d="M3.2225 10.2855C3.30672 10.2845 3.38993 10.2671 3.46741 10.2341C3.54551 10.2016 3.61745 10.1559 3.68009 10.0991C3.73983 10.039 3.78708 9.96781 3.81916 9.88949C3.85123 9.81116 3.86749 9.72729 3.867 9.64269C3.86462 9.47248 3.79786 9.30946 3.68009 9.18626L3.58342 9.10912C3.54749 9.08479 3.50848 9.06533 3.46741 9.05126C3.42903 9.03169 3.38764 9.01865 3.34495 9.01269C3.26228 8.99349 3.17628 8.99349 3.0936 9.01269L2.97759 9.05126C2.93652 9.06533 2.89751 9.08479 2.86158 9.10912L2.76491 9.18626C2.64714 9.30946 2.58038 9.47248 2.578 9.64269C2.578 9.81319 2.64591 9.9767 2.76677 10.0973C2.88764 10.2178 3.05157 10.2855 3.2225 10.2855Z" fill="#79747E"/>
<path d="M5.34288 10.0991C5.40279 10.1594 5.47407 10.2072 5.55261 10.2398C5.63115 10.2725 5.71539 10.2893 5.80047 10.2893C5.88555 10.2893 5.96979 10.2725 6.04833 10.2398C6.12687 10.2072 6.19815 10.1594 6.25806 10.0991C6.31499 10.0366 6.36077 9.96488 6.39341 9.88698C6.42643 9.80969 6.44395 9.7267 6.44497 9.64269C6.44259 9.47248 6.37583 9.30946 6.25806 9.18626C6.22636 9.15718 6.19181 9.13133 6.15494 9.10912C6.12204 9.08367 6.08497 9.0641 6.04538 9.05126C6.007 9.03169 5.96561 9.01865 5.92292 9.01269C5.84024 8.99349 5.75425 8.99349 5.67157 9.01269L5.55556 9.05126C5.51449 9.06533 5.47548 9.08479 5.43955 9.10912C5.40579 9.13285 5.3735 9.15862 5.34288 9.18626C5.28319 9.24661 5.23706 9.31892 5.20753 9.39841C5.17344 9.47536 5.15582 9.55856 5.15582 9.64269C5.15582 9.72682 5.17344 9.81003 5.20753 9.88698C5.24017 9.96488 5.28595 10.0366 5.34288 10.0991Z" fill="#79747E"/>
<path d="M8.37849 10.2857C8.54942 10.2857 8.71335 10.2179 8.83422 10.0974C8.95509 9.97682 9.02299 9.81331 9.02299 9.64281C9.02061 9.4726 8.95385 9.30957 8.83608 9.18638C8.80438 9.15729 8.76983 9.13145 8.73296 9.10924C8.70006 9.08379 8.66299 9.06422 8.6234 9.05138C8.58502 9.03181 8.54363 9.01877 8.50095 9.01281C8.37747 8.98677 8.24891 9.00027 8.13358 9.05138C8.05447 9.08198 7.98219 9.12786 7.9209 9.18638C7.80313 9.30957 7.73637 9.4726 7.73399 9.64281C7.73399 9.81331 7.8019 9.97682 7.92276 10.0974C8.04363 10.2179 8.20756 10.2857 8.37849 10.2857Z" fill="#79747E"/>
<path d="M3.2225 12.8571C3.30672 12.8561 3.38993 12.8386 3.46741 12.8057C3.54551 12.7731 3.61745 12.7274 3.68009 12.6707C3.73983 12.6106 3.78708 12.5393 3.81916 12.461C3.85123 12.3827 3.86749 12.2988 3.867 12.2142C3.86462 12.044 3.79786 11.881 3.68009 11.7578C3.64947 11.7301 3.61718 11.7044 3.58342 11.6807C3.54749 11.6563 3.50848 11.6369 3.46741 11.6228C3.42903 11.6032 3.38764 11.5902 3.34495 11.5842C3.26228 11.565 3.17628 11.565 3.0936 11.5842L2.97759 11.6228C2.93652 11.6369 2.89751 11.6563 2.86158 11.6807C2.82782 11.7044 2.79553 11.7301 2.76491 11.7578C2.64714 11.881 2.58038 12.044 2.578 12.2142C2.578 12.3847 2.64591 12.5482 2.76677 12.6688C2.88764 12.7894 3.05157 12.8571 3.2225 12.8571Z" fill="#79747E"/>
<path d="M5.34288 12.6707C5.40279 12.731 5.47407 12.7788 5.55261 12.8114C5.63115 12.8441 5.71539 12.8609 5.80047 12.8609C5.88555 12.8609 5.96979 12.8441 6.04833 12.8114C6.12687 12.7788 6.19815 12.731 6.25806 12.6707C6.31499 12.6082 6.36077 12.5365 6.39341 12.4586C6.4275 12.3816 6.44512 12.2984 6.44512 12.2143C6.44512 12.1302 6.4275 12.047 6.39341 11.97C6.36273 11.8911 6.31674 11.819 6.25806 11.7579C6.22636 11.7288 6.19181 11.7029 6.15494 11.6807C6.12204 11.6553 6.08497 11.6357 6.04538 11.6229C6.007 11.6033 5.96561 11.5902 5.92292 11.5843C5.81938 11.5636 5.71233 11.5686 5.61119 11.5989C5.51005 11.6292 5.41791 11.6837 5.34288 11.7579C5.2842 11.819 5.23821 11.8911 5.20753 11.97C5.17344 12.047 5.15582 12.1302 5.15582 12.2143C5.15582 12.2984 5.17344 12.3816 5.20753 12.4586C5.24017 12.5365 5.28595 12.6082 5.34288 12.6707Z" fill="#79747E"/>
<path d="M7.92088 12.6706C8.01103 12.7613 8.1262 12.8231 8.25171 12.8483C8.37723 12.8734 8.5074 12.8606 8.62563 12.8117C8.74385 12.7627 8.84479 12.6797 8.91555 12.5733C8.98632 12.4669 9.02371 12.3419 9.02297 12.2142C9.0206 12.044 8.95384 11.881 8.83606 11.7578C8.80436 11.7287 8.76982 11.7029 8.73294 11.6806C8.70004 11.6552 8.66297 11.6356 8.62338 11.6228C8.585 11.6032 8.54361 11.5902 8.50093 11.5842C8.37745 11.5582 8.24889 11.5717 8.13356 11.6228C8.05358 11.6517 7.98095 11.6977 7.9208 11.7577C7.86066 11.8177 7.81448 11.8902 7.78553 11.9699C7.74945 12.0462 7.7318 12.1299 7.73397 12.2142C7.73295 12.2978 7.74827 12.3808 7.77909 12.4585C7.81646 12.5353 7.86416 12.6067 7.92088 12.6706Z" fill="#79747E"/>
<path d="M3.2225 15.4285C3.30672 15.4275 3.38993 15.41 3.46741 15.3771C3.54551 15.3445 3.61745 15.2988 3.68009 15.2421C3.73983 15.182 3.78708 15.1108 3.81916 15.0324C3.85123 14.9541 3.86749 14.8702 3.867 14.7856C3.86462 14.6154 3.79786 14.4524 3.68009 14.3292L3.58342 14.2521C3.54749 14.2277 3.50848 14.2083 3.46741 14.1942C3.42903 14.1746 3.38764 14.1616 3.34495 14.1556C3.26228 14.1364 3.17628 14.1364 3.0936 14.1556L2.97759 14.1942C2.93652 14.2083 2.89751 14.2277 2.86158 14.2521L2.76491 14.3292C2.64714 14.4524 2.58038 14.6154 2.578 14.7856C2.578 14.9561 2.64591 15.1196 2.76677 15.2402C2.88764 15.3608 3.05157 15.4285 3.2225 15.4285Z" fill="#79747E"/>
<path d="M5.34288 15.2421C5.40279 15.3024 5.47407 15.3502 5.55261 15.3828C5.63115 15.4155 5.71539 15.4323 5.80047 15.4323C5.88555 15.4323 5.96979 15.4155 6.04833 15.3828C6.12687 15.3502 6.19815 15.3024 6.25806 15.2421C6.31499 15.1796 6.36077 15.1079 6.39341 15.03C6.4275 14.953 6.44512 14.8698 6.44512 14.7857C6.44512 14.7016 6.4275 14.6184 6.39341 14.5414C6.36273 14.4625 6.31674 14.3904 6.25806 14.3293C6.22636 14.3002 6.19181 14.2743 6.15494 14.2521C6.12204 14.2267 6.08497 14.2071 6.04538 14.1943C6.007 14.1747 5.96561 14.1617 5.92292 14.1557C5.81938 14.135 5.71233 14.14 5.61119 14.1703C5.51005 14.2006 5.41791 14.2552 5.34288 14.3293C5.2842 14.3904 5.23821 14.4625 5.20753 14.5414C5.17344 14.6184 5.15582 14.7016 5.15582 14.7857C5.15582 14.8698 5.17344 14.953 5.20753 15.03C5.24017 15.1079 5.28595 15.1796 5.34288 15.2421Z" fill="#79747E"/>
<path d="M8.37847 15.4286C8.5494 15.4286 8.71333 15.3609 8.8342 15.2403C8.95507 15.1198 9.02297 14.9563 9.02297 14.7858C9.02059 14.6155 8.95384 14.4525 8.83606 14.3293C8.80436 14.3002 8.76982 14.2744 8.73294 14.2522C8.70004 14.2267 8.66297 14.2072 8.62338 14.1943C8.585 14.1748 8.54361 14.1617 8.50093 14.1558C8.37745 14.1297 8.24889 14.1432 8.13356 14.1943C8.05358 14.2232 7.98095 14.2693 7.9208 14.3293C7.86066 14.3892 7.81448 14.4617 7.78553 14.5415C7.74945 14.6178 7.7318 14.7014 7.73397 14.7858C7.73397 14.9563 7.80188 15.1198 7.92274 15.2403C8.04361 15.3609 8.20754 15.4286 8.37847 15.4286Z" fill="#79747E"/>
</svg>
