<svg width="24" height="26" viewBox="0 0 24 26" fill="none" xmlns="http://www.w3.org/2000/svg" xmlns:xlink="http://www.w3.org/1999/xlink">
<path d="M9.341,26L0.944,26C0.428,26 0,25.631 0,25.188L0,18.691C0,17.046 1.549,15.714 3.462,15.714L9.341,15.714C9.858,15.714 10.286,16.082 10.286,16.526L10.286,25.188C10.286,25.631 9.858,26 9.341,26ZM1.888,24.376L8.397,24.376L8.397,17.338L3.462,17.338C2.593,17.338 1.888,17.944 1.888,18.691L1.888,24.376Z" fill="#FCFF77"/>
<path d="M16.356,26L9.358,26C8.928,26 8.571,25.611 8.571,25.143L8.571,13.714C8.571,11.977 9.862,10.571 11.457,10.571L14.258,10.571C15.852,10.571 17.143,11.977 17.143,13.714L17.143,25.143C17.143,25.611 16.797,26 16.356,26ZM10.156,24.286L15.58,24.286L15.58,13.714C15.58,12.926 14.992,12.286 14.268,12.286L11.467,12.286C10.743,12.286 10.156,12.926 10.156,13.714L10.156,24.286Z" fill="#FCFF77"/>
<path d="M23.213,26L16.215,26C15.785,26 15.429,25.641 15.429,25.209L15.429,19.934C15.429,19.501 15.785,19.143 16.215,19.143L21.115,19.143C22.71,19.143 24,20.44 24,22.044L24,25.209C24,25.641 23.643,26 23.213,26ZM17.002,24.417L22.426,24.417L22.426,22.044C22.426,21.316 21.839,20.725 21.115,20.725L17.002,20.725L17.002,24.417Z" fill="#FCFF77"/>
<path d="M14.814,8.571C14.54,8.571 14.197,8.491 13.808,8.26L12.869,7.694L11.943,8.248C11.005,8.814 10.387,8.479 10.158,8.317C9.929,8.156 9.437,7.648 9.678,6.585L9.895,5.627L9.117,4.841C8.636,4.356 8.465,3.779 8.636,3.248C8.808,2.717 9.277,2.347 9.941,2.232L10.936,2.058L11.497,0.927C12.114,-0.309 13.613,-0.309 14.219,0.927L14.78,2.058L15.775,2.232C16.439,2.347 16.92,2.717 17.08,3.248C17.251,3.779 17.068,4.356 16.599,4.841L15.821,5.627L16.039,6.585C16.279,7.659 15.787,8.156 15.558,8.329C15.455,8.421 15.192,8.571 14.814,8.571ZM12.869,5.95C13.144,5.95 13.419,6.019 13.647,6.158L14.288,6.539L14.151,5.915C14.036,5.43 14.208,4.841 14.563,4.483L15.146,3.895L14.425,3.767C13.968,3.687 13.522,3.352 13.316,2.936L12.869,2.07L12.435,2.936C12.229,3.352 11.783,3.687 11.325,3.767L10.604,3.883L11.188,4.472C11.542,4.83 11.703,5.419 11.6,5.904L11.462,6.527L12.103,6.146C12.32,6.008 12.595,5.95 12.869,5.95Z" fill="#FCFF77"/>
</svg>
